<svg xmlns="http://www.w3.org/2000/svg" xmlns:xlink="http://www.w3.org/1999/xlink" width="74" zoomAndPan="magnify" viewBox="0 0 55.5 55.499996" height="74" preserveAspectRatio="xMidYMid meet" version="1.0"><defs><g/><clipPath id="f613c26ed9"><path d="M 0 0 L 55.003906 0 L 55.003906 55.003906 L 0 55.003906 Z M 0 0 " clip-rule="nonzero"/></clipPath><clipPath id="bc69383b92"><path d="M 55.34375 27.75 C 55.34375 28.652344 55.300781 29.554688 55.210938 30.453125 C 55.125 31.355469 54.992188 32.246094 54.8125 33.132812 C 54.636719 34.019531 54.417969 34.894531 54.15625 35.761719 C 53.894531 36.625 53.589844 37.476562 53.242188 38.308594 C 52.898438 39.144531 52.511719 39.960938 52.085938 40.757812 C 51.660156 41.554688 51.195312 42.328125 50.695312 43.082031 C 50.191406 43.832031 49.652344 44.558594 49.082031 45.253906 C 48.507812 45.953125 47.902344 46.625 47.261719 47.261719 C 46.625 47.902344 45.953125 48.507812 45.253906 49.082031 C 44.558594 49.652344 43.832031 50.191406 43.082031 50.695312 C 42.328125 51.195312 41.554688 51.660156 40.757812 52.085938 C 39.960938 52.511719 39.144531 52.898438 38.308594 53.242188 C 37.476562 53.589844 36.625 53.894531 35.761719 54.15625 C 34.894531 54.417969 34.019531 54.636719 33.132812 54.8125 C 32.246094 54.992188 31.355469 55.125 30.453125 55.210938 C 29.554688 55.300781 28.652344 55.34375 27.75 55.34375 C 26.847656 55.34375 25.945312 55.300781 25.046875 55.210938 C 24.144531 55.125 23.253906 54.992188 22.367188 54.8125 C 21.480469 54.636719 20.605469 54.417969 19.738281 54.15625 C 18.875 53.894531 18.023438 53.589844 17.191406 53.242188 C 16.355469 52.898438 15.539062 52.511719 14.742188 52.085938 C 13.945312 51.660156 13.171875 51.195312 12.417969 50.695312 C 11.667969 50.191406 10.941406 49.652344 10.246094 49.082031 C 9.546875 48.507812 8.875 47.902344 8.238281 47.261719 C 7.597656 46.625 6.992188 45.953125 6.417969 45.253906 C 5.847656 44.558594 5.308594 43.832031 4.804688 43.082031 C 4.304688 42.328125 3.839844 41.554688 3.414062 40.757812 C 2.988281 39.960938 2.601562 39.144531 2.257812 38.308594 C 1.910156 37.476562 1.605469 36.625 1.34375 35.761719 C 1.082031 34.894531 0.863281 34.019531 0.6875 33.132812 C 0.507812 32.246094 0.375 31.355469 0.289062 30.453125 C 0.199219 29.554688 0.15625 28.652344 0.15625 27.75 C 0.15625 26.847656 0.199219 25.945312 0.289062 25.046875 C 0.375 24.144531 0.507812 23.253906 0.6875 22.367188 C 0.863281 21.480469 1.082031 20.605469 1.34375 19.738281 C 1.605469 18.875 1.910156 18.023438 2.257812 17.191406 C 2.601562 16.355469 2.988281 15.539062 3.414062 14.742188 C 3.839844 13.945312 4.304688 13.171875 4.804688 12.417969 C 5.308594 11.667969 5.847656 10.941406 6.417969 10.246094 C 6.992188 9.546875 7.597656 8.875 8.238281 8.238281 C 8.875 7.597656 9.546875 6.992188 10.246094 6.417969 C 10.941406 5.847656 11.667969 5.308594 12.417969 4.804688 C 13.171875 4.304688 13.945312 3.839844 14.742188 3.414062 C 15.539062 2.988281 16.355469 2.601562 17.191406 2.257812 C 18.023438 1.910156 18.875 1.605469 19.738281 1.34375 C 20.605469 1.082031 21.480469 0.863281 22.367188 0.6875 C 23.253906 0.507812 24.144531 0.375 25.046875 0.289062 C 25.945312 0.199219 26.847656 0.15625 27.75 0.15625 C 28.652344 0.15625 29.554688 0.199219 30.453125 0.289062 C 31.355469 0.375 32.246094 0.507812 33.132812 0.6875 C 34.019531 0.863281 34.894531 1.082031 35.761719 1.34375 C 36.625 1.605469 37.476562 1.910156 38.308594 2.257812 C 39.144531 2.601562 39.960938 2.988281 40.757812 3.414062 C 41.554688 3.839844 42.328125 4.304688 43.082031 4.804688 C 43.832031 5.308594 44.558594 5.847656 45.253906 6.417969 C 45.953125 6.992188 46.625 7.597656 47.261719 8.238281 C 47.902344 8.875 48.507812 9.546875 49.082031 10.246094 C 49.652344 10.941406 50.191406 11.667969 50.695312 12.417969 C 51.195312 13.171875 51.660156 13.945312 52.085938 14.742188 C 52.511719 15.539062 52.898438 16.355469 53.242188 17.191406 C 53.589844 18.023438 53.894531 18.875 54.15625 19.738281 C 54.417969 20.605469 54.636719 21.480469 54.8125 22.367188 C 54.992188 23.253906 55.125 24.144531 55.210938 25.046875 C 55.300781 25.945312 55.34375 26.847656 55.34375 27.75 Z M 55.34375 27.75 " clip-rule="nonzero"/></clipPath><linearGradient x1="48.842112" gradientTransform="matrix(0.111, 0, 0, 0.111, 0.000002, -0.00000198214)" y1="-32.394398" x2="448.678128" gradientUnits="userSpaceOnUse" y2="528.91374" id="67e2a5c590"><stop stop-opacity="1" stop-color="rgb(30.198669%, 89.7995%, 47.099304%)" offset="0"/><stop stop-opacity="1" stop-color="rgb(30.198669%, 89.7995%, 47.099304%)" offset="0.03125"/><stop stop-opacity="1" stop-color="rgb(30.198669%, 89.7995%, 47.099304%)" offset="0.046875"/><stop stop-opacity="1" stop-color="rgb(30.245972%, 89.753723%, 47.145081%)" offset="0.0546875"/><stop stop-opacity="1" stop-color="rgb(30.497742%, 89.508057%, 47.390747%)" offset="0.0585938"/><stop stop-opacity="1" stop-color="rgb(30.702209%, 89.309692%, 47.592163%)" offset="0.0625"/><stop stop-opacity="1" stop-color="rgb(30.906677%, 89.109802%, 47.793579%)" offset="0.0664062"/><stop stop-opacity="1" stop-color="rgb(31.111145%, 88.909912%, 47.994995%)" offset="0.0703125"/><stop stop-opacity="1" stop-color="rgb(31.315613%, 88.710022%, 48.194885%)" offset="0.0742188"/><stop stop-opacity="1" stop-color="rgb(31.521606%, 88.511658%, 48.396301%)" offset="0.078125"/><stop stop-opacity="1" stop-color="rgb(31.726074%, 88.311768%, 48.596191%)" offset="0.0820313"/><stop stop-opacity="1" stop-color="rgb(31.930542%, 88.111877%, 48.797607%)" offset="0.0859375"/><stop stop-opacity="1" stop-color="rgb(32.13501%, 87.911987%, 48.997498%)" offset="0.0898438"/><stop stop-opacity="1" stop-color="rgb(32.341003%, 87.713623%, 49.198914%)" offset="0.09375"/><stop stop-opacity="1" stop-color="rgb(32.545471%, 87.513733%, 49.398804%)" offset="0.0976563"/><stop stop-opacity="1" stop-color="rgb(32.749939%, 87.313843%, 49.60022%)" offset="0.101563"/><stop stop-opacity="1" stop-color="rgb(32.954407%, 87.113953%, 49.801636%)" offset="0.105469"/><stop stop-opacity="1" stop-color="rgb(33.1604%, 86.915588%, 50.003052%)" offset="0.109375"/><stop stop-opacity="1" stop-color="rgb(33.364868%, 86.715698%, 50.202942%)" offset="0.113281"/><stop stop-opacity="1" stop-color="rgb(33.569336%, 86.515808%, 50.404358%)" offset="0.117188"/><stop stop-opacity="1" stop-color="rgb(33.773804%, 86.315918%, 50.604248%)" offset="0.121094"/><stop stop-opacity="1" stop-color="rgb(33.978271%, 86.116028%, 50.805664%)" offset="0.125"/><stop stop-opacity="1" stop-color="rgb(34.182739%, 85.916138%, 51.005554%)" offset="0.128906"/><stop stop-opacity="1" stop-color="rgb(34.388733%, 85.717773%, 51.20697%)" offset="0.132812"/><stop stop-opacity="1" stop-color="rgb(34.593201%, 85.517883%, 51.408386%)" offset="0.136719"/><stop stop-opacity="1" stop-color="rgb(34.797668%, 85.317993%, 51.609802%)" offset="0.140625"/><stop stop-opacity="1" stop-color="rgb(35.002136%, 85.118103%, 51.809692%)" offset="0.144531"/><stop stop-opacity="1" stop-color="rgb(35.20813%, 84.919739%, 52.011108%)" offset="0.148438"/><stop stop-opacity="1" stop-color="rgb(35.412598%, 84.719849%, 52.210999%)" offset="0.152344"/><stop stop-opacity="1" stop-color="rgb(35.617065%, 84.519958%, 52.412415%)" offset="0.15625"/><stop stop-opacity="1" stop-color="rgb(35.821533%, 84.320068%, 52.612305%)" offset="0.160156"/><stop stop-opacity="1" stop-color="rgb(36.026001%, 84.121704%, 52.813721%)" offset="0.164063"/><stop stop-opacity="1" stop-color="rgb(36.230469%, 83.921814%, 53.015137%)" offset="0.167969"/><stop stop-opacity="1" stop-color="rgb(36.436462%, 83.721924%, 53.216553%)" offset="0.171875"/><stop stop-opacity="1" stop-color="rgb(36.64093%, 83.522034%, 53.416443%)" offset="0.175781"/><stop stop-opacity="1" stop-color="rgb(36.845398%, 83.323669%, 53.617859%)" offset="0.179688"/><stop stop-opacity="1" stop-color="rgb(37.049866%, 83.123779%, 53.817749%)" offset="0.183594"/><stop stop-opacity="1" stop-color="rgb(37.255859%, 82.923889%, 54.019165%)" offset="0.1875"/><stop stop-opacity="1" stop-color="rgb(37.460327%, 82.723999%, 54.219055%)" offset="0.191406"/><stop stop-opacity="1" stop-color="rgb(37.664795%, 82.525635%, 54.420471%)" offset="0.195313"/><stop stop-opacity="1" stop-color="rgb(37.869263%, 82.325745%, 54.621887%)" offset="0.199219"/><stop stop-opacity="1" stop-color="rgb(38.07373%, 82.125854%, 54.823303%)" offset="0.203125"/><stop stop-opacity="1" stop-color="rgb(38.278198%, 81.925964%, 55.023193%)" offset="0.207031"/><stop stop-opacity="1" stop-color="rgb(38.484192%, 81.7276%, 55.224609%)" offset="0.210938"/><stop stop-opacity="1" stop-color="rgb(38.68866%, 81.52771%, 55.4245%)" offset="0.214844"/><stop stop-opacity="1" stop-color="rgb(38.893127%, 81.32782%, 55.625916%)" offset="0.21875"/><stop stop-opacity="1" stop-color="rgb(39.097595%, 81.12793%, 55.825806%)" offset="0.222656"/><stop stop-opacity="1" stop-color="rgb(39.303589%, 80.929565%, 56.027222%)" offset="0.226563"/><stop stop-opacity="1" stop-color="rgb(39.508057%, 80.729675%, 56.228638%)" offset="0.230469"/><stop stop-opacity="1" stop-color="rgb(39.712524%, 80.529785%, 56.430054%)" offset="0.234375"/><stop stop-opacity="1" stop-color="rgb(39.916992%, 80.329895%, 56.629944%)" offset="0.238281"/><stop stop-opacity="1" stop-color="rgb(40.122986%, 80.131531%, 56.83136%)" offset="0.242188"/><stop stop-opacity="1" stop-color="rgb(40.327454%, 79.931641%, 57.03125%)" offset="0.246094"/><stop stop-opacity="1" stop-color="rgb(40.531921%, 79.73175%, 57.232666%)" offset="0.25"/><stop stop-opacity="1" stop-color="rgb(40.736389%, 79.53186%, 57.432556%)" offset="0.253906"/><stop stop-opacity="1" stop-color="rgb(40.940857%, 79.333496%, 57.633972%)" offset="0.257812"/><stop stop-opacity="1" stop-color="rgb(41.145325%, 79.133606%, 57.835388%)" offset="0.261719"/><stop stop-opacity="1" stop-color="rgb(41.351318%, 78.933716%, 58.036804%)" offset="0.265625"/><stop stop-opacity="1" stop-color="rgb(41.555786%, 78.733826%, 58.236694%)" offset="0.269531"/><stop stop-opacity="1" stop-color="rgb(41.760254%, 78.535461%, 58.43811%)" offset="0.273438"/><stop stop-opacity="1" stop-color="rgb(41.964722%, 78.335571%, 58.638%)" offset="0.277344"/><stop stop-opacity="1" stop-color="rgb(42.170715%, 78.135681%, 58.839417%)" offset="0.28125"/><stop stop-opacity="1" stop-color="rgb(42.375183%, 77.935791%, 59.039307%)" offset="0.285156"/><stop stop-opacity="1" stop-color="rgb(42.579651%, 77.737427%, 59.240723%)" offset="0.289062"/><stop stop-opacity="1" stop-color="rgb(42.784119%, 77.537537%, 59.440613%)" offset="0.292969"/><stop stop-opacity="1" stop-color="rgb(42.988586%, 77.337646%, 59.642029%)" offset="0.296875"/><stop stop-opacity="1" stop-color="rgb(43.193054%, 77.137756%, 59.843445%)" offset="0.300781"/><stop stop-opacity="1" stop-color="rgb(43.399048%, 76.939392%, 60.044861%)" offset="0.304688"/><stop stop-opacity="1" stop-color="rgb(43.603516%, 76.739502%, 60.244751%)" offset="0.308594"/><stop stop-opacity="1" stop-color="rgb(43.807983%, 76.539612%, 60.446167%)" offset="0.3125"/><stop stop-opacity="1" stop-color="rgb(44.012451%, 76.339722%, 60.646057%)" offset="0.316406"/><stop stop-opacity="1" stop-color="rgb(44.218445%, 76.141357%, 60.847473%)" offset="0.320313"/><stop stop-opacity="1" stop-color="rgb(44.422913%, 75.941467%, 61.047363%)" offset="0.324219"/><stop stop-opacity="1" stop-color="rgb(44.62738%, 75.741577%, 61.248779%)" offset="0.328125"/><stop stop-opacity="1" stop-color="rgb(44.831848%, 75.541687%, 61.450195%)" offset="0.332031"/><stop stop-opacity="1" stop-color="rgb(45.036316%, 75.343323%, 61.651611%)" offset="0.335938"/><stop stop-opacity="1" stop-color="rgb(45.240784%, 75.143433%, 61.851501%)" offset="0.339844"/><stop stop-opacity="1" stop-color="rgb(45.446777%, 74.943542%, 62.052917%)" offset="0.34375"/><stop stop-opacity="1" stop-color="rgb(45.651245%, 74.743652%, 62.252808%)" offset="0.347656"/><stop stop-opacity="1" stop-color="rgb(45.855713%, 74.545288%, 62.454224%)" offset="0.351563"/><stop stop-opacity="1" stop-color="rgb(46.060181%, 74.345398%, 62.654114%)" offset="0.355469"/><stop stop-opacity="1" stop-color="rgb(46.266174%, 74.145508%, 62.85553%)" offset="0.359375"/><stop stop-opacity="1" stop-color="rgb(46.470642%, 73.945618%, 63.056946%)" offset="0.363281"/><stop stop-opacity="1" stop-color="rgb(46.67511%, 73.747253%, 63.258362%)" offset="0.367188"/><stop stop-opacity="1" stop-color="rgb(46.879578%, 73.547363%, 63.458252%)" offset="0.371094"/><stop stop-opacity="1" stop-color="rgb(47.085571%, 73.347473%, 63.659668%)" offset="0.375"/><stop stop-opacity="1" stop-color="rgb(47.290039%, 73.147583%, 63.859558%)" offset="0.378906"/><stop stop-opacity="1" stop-color="rgb(47.494507%, 72.949219%, 64.060974%)" offset="0.382812"/><stop stop-opacity="1" stop-color="rgb(47.698975%, 72.749329%, 64.260864%)" offset="0.386719"/><stop stop-opacity="1" stop-color="rgb(47.903442%, 72.549438%, 64.46228%)" offset="0.390625"/><stop stop-opacity="1" stop-color="rgb(48.10791%, 72.349548%, 64.663696%)" offset="0.394531"/><stop stop-opacity="1" stop-color="rgb(48.313904%, 72.149658%, 64.865112%)" offset="0.398438"/><stop stop-opacity="1" stop-color="rgb(48.518372%, 71.949768%, 65.065002%)" offset="0.402344"/><stop stop-opacity="1" stop-color="rgb(48.722839%, 71.751404%, 65.266418%)" offset="0.40625"/><stop stop-opacity="1" stop-color="rgb(48.927307%, 71.551514%, 65.466309%)" offset="0.410156"/><stop stop-opacity="1" stop-color="rgb(49.133301%, 71.351624%, 65.667725%)" offset="0.414062"/><stop stop-opacity="1" stop-color="rgb(49.337769%, 71.151733%, 65.867615%)" offset="0.417969"/><stop stop-opacity="1" stop-color="rgb(49.542236%, 70.953369%, 66.069031%)" offset="0.421875"/><stop stop-opacity="1" stop-color="rgb(49.746704%, 70.753479%, 66.270447%)" offset="0.425781"/><stop stop-opacity="1" stop-color="rgb(49.951172%, 70.553589%, 66.471863%)" offset="0.429688"/><stop stop-opacity="1" stop-color="rgb(50.15564%, 70.353699%, 66.671753%)" offset="0.433594"/><stop stop-opacity="1" stop-color="rgb(50.361633%, 70.155334%, 66.873169%)" offset="0.4375"/><stop stop-opacity="1" stop-color="rgb(50.566101%, 69.955444%, 67.073059%)" offset="0.441406"/><stop stop-opacity="1" stop-color="rgb(50.770569%, 69.755554%, 67.274475%)" offset="0.445313"/><stop stop-opacity="1" stop-color="rgb(50.975037%, 69.555664%, 67.474365%)" offset="0.449219"/><stop stop-opacity="1" stop-color="rgb(51.18103%, 69.3573%, 67.675781%)" offset="0.453125"/><stop stop-opacity="1" stop-color="rgb(51.385498%, 69.15741%, 67.875671%)" offset="0.457031"/><stop stop-opacity="1" stop-color="rgb(51.589966%, 68.95752%, 68.077087%)" offset="0.460938"/><stop stop-opacity="1" stop-color="rgb(51.794434%, 68.757629%, 68.278503%)" offset="0.464844"/><stop stop-opacity="1" stop-color="rgb(51.998901%, 68.559265%, 68.479919%)" offset="0.46875"/><stop stop-opacity="1" stop-color="rgb(52.203369%, 68.359375%, 68.67981%)" offset="0.472656"/><stop stop-opacity="1" stop-color="rgb(52.409363%, 68.159485%, 68.881226%)" offset="0.476563"/><stop stop-opacity="1" stop-color="rgb(52.613831%, 67.959595%, 69.081116%)" offset="0.480469"/><stop stop-opacity="1" stop-color="rgb(52.818298%, 67.76123%, 69.282532%)" offset="0.484375"/><stop stop-opacity="1" stop-color="rgb(53.022766%, 67.56134%, 69.482422%)" offset="0.488281"/><stop stop-opacity="1" stop-color="rgb(53.22876%, 67.36145%, 69.683838%)" offset="0.492188"/><stop stop-opacity="1" stop-color="rgb(53.433228%, 67.16156%, 69.885254%)" offset="0.496094"/><stop stop-opacity="1" stop-color="rgb(53.637695%, 66.963196%, 70.08667%)" offset="0.5"/><stop stop-opacity="1" stop-color="rgb(53.842163%, 66.763306%, 70.28656%)" offset="0.503906"/><stop stop-opacity="1" stop-color="rgb(54.048157%, 66.563416%, 70.487976%)" offset="0.507813"/><stop stop-opacity="1" stop-color="rgb(54.252625%, 66.363525%, 70.687866%)" offset="0.511719"/><stop stop-opacity="1" stop-color="rgb(54.457092%, 66.165161%, 70.889282%)" offset="0.515625"/><stop stop-opacity="1" stop-color="rgb(54.66156%, 65.965271%, 71.089172%)" offset="0.519531"/><stop stop-opacity="1" stop-color="rgb(54.866028%, 65.765381%, 71.290588%)" offset="0.523438"/><stop stop-opacity="1" stop-color="rgb(55.070496%, 65.565491%, 71.492004%)" offset="0.527344"/><stop stop-opacity="1" stop-color="rgb(55.276489%, 65.367126%, 71.69342%)" offset="0.53125"/><stop stop-opacity="1" stop-color="rgb(55.480957%, 65.167236%, 71.893311%)" offset="0.535156"/><stop stop-opacity="1" stop-color="rgb(55.685425%, 64.967346%, 72.094727%)" offset="0.539063"/><stop stop-opacity="1" stop-color="rgb(55.889893%, 64.767456%, 72.294617%)" offset="0.542969"/><stop stop-opacity="1" stop-color="rgb(56.095886%, 64.569092%, 72.496033%)" offset="0.546875"/><stop stop-opacity="1" stop-color="rgb(56.300354%, 64.369202%, 72.695923%)" offset="0.550781"/><stop stop-opacity="1" stop-color="rgb(56.504822%, 64.169312%, 72.897339%)" offset="0.554688"/><stop stop-opacity="1" stop-color="rgb(56.70929%, 63.969421%, 73.098755%)" offset="0.558594"/><stop stop-opacity="1" stop-color="rgb(56.913757%, 63.771057%, 73.300171%)" offset="0.5625"/><stop stop-opacity="1" stop-color="rgb(57.118225%, 63.571167%, 73.500061%)" offset="0.566406"/><stop stop-opacity="1" stop-color="rgb(57.324219%, 63.371277%, 73.701477%)" offset="0.570313"/><stop stop-opacity="1" stop-color="rgb(57.528687%, 63.171387%, 73.901367%)" offset="0.574219"/><stop stop-opacity="1" stop-color="rgb(57.733154%, 62.973022%, 74.102783%)" offset="0.578125"/><stop stop-opacity="1" stop-color="rgb(57.937622%, 62.773132%, 74.302673%)" offset="0.582031"/><stop stop-opacity="1" stop-color="rgb(58.143616%, 62.573242%, 74.504089%)" offset="0.585938"/><stop stop-opacity="1" stop-color="rgb(58.348083%, 62.373352%, 74.705505%)" offset="0.589844"/><stop stop-opacity="1" stop-color="rgb(58.552551%, 62.174988%, 74.906921%)" offset="0.59375"/><stop stop-opacity="1" stop-color="rgb(58.757019%, 61.975098%, 75.106812%)" offset="0.597656"/><stop stop-opacity="1" stop-color="rgb(58.961487%, 61.775208%, 75.308228%)" offset="0.601563"/><stop stop-opacity="1" stop-color="rgb(59.165955%, 61.575317%, 75.508118%)" offset="0.605469"/><stop stop-opacity="1" stop-color="rgb(59.371948%, 61.376953%, 75.709534%)" offset="0.609375"/><stop stop-opacity="1" stop-color="rgb(59.576416%, 61.177063%, 75.909424%)" offset="0.613281"/><stop stop-opacity="1" stop-color="rgb(59.780884%, 60.977173%, 76.11084%)" offset="0.617188"/><stop stop-opacity="1" stop-color="rgb(59.985352%, 60.777283%, 76.312256%)" offset="0.621094"/><stop stop-opacity="1" stop-color="rgb(60.191345%, 60.578918%, 76.513672%)" offset="0.625"/><stop stop-opacity="1" stop-color="rgb(60.395813%, 60.379028%, 76.713562%)" offset="0.628906"/><stop stop-opacity="1" stop-color="rgb(60.600281%, 60.179138%, 76.914978%)" offset="0.632813"/><stop stop-opacity="1" stop-color="rgb(60.804749%, 59.979248%, 77.114868%)" offset="0.636719"/><stop stop-opacity="1" stop-color="rgb(61.010742%, 59.780884%, 77.316284%)" offset="0.640625"/><stop stop-opacity="1" stop-color="rgb(61.21521%, 59.580994%, 77.516174%)" offset="0.644531"/><stop stop-opacity="1" stop-color="rgb(61.419678%, 59.381104%, 77.71759%)" offset="0.648438"/><stop stop-opacity="1" stop-color="rgb(61.624146%, 59.181213%, 77.91748%)" offset="0.652344"/><stop stop-opacity="1" stop-color="rgb(61.828613%, 58.981323%, 78.118896%)" offset="0.65625"/><stop stop-opacity="1" stop-color="rgb(62.033081%, 58.781433%, 78.320312%)" offset="0.660156"/><stop stop-opacity="1" stop-color="rgb(62.239075%, 58.583069%, 78.521729%)" offset="0.664063"/><stop stop-opacity="1" stop-color="rgb(62.443542%, 58.383179%, 78.721619%)" offset="0.667969"/><stop stop-opacity="1" stop-color="rgb(62.64801%, 58.183289%, 78.923035%)" offset="0.671875"/><stop stop-opacity="1" stop-color="rgb(62.852478%, 57.983398%, 79.122925%)" offset="0.675781"/><stop stop-opacity="1" stop-color="rgb(63.058472%, 57.785034%, 79.324341%)" offset="0.679688"/><stop stop-opacity="1" stop-color="rgb(63.262939%, 57.585144%, 79.524231%)" offset="0.683594"/><stop stop-opacity="1" stop-color="rgb(63.467407%, 57.385254%, 79.725647%)" offset="0.6875"/><stop stop-opacity="1" stop-color="rgb(63.671875%, 57.185364%, 79.927063%)" offset="0.691406"/><stop stop-opacity="1" stop-color="rgb(63.876343%, 56.987%, 80.128479%)" offset="0.695313"/><stop stop-opacity="1" stop-color="rgb(64.080811%, 56.787109%, 80.328369%)" offset="0.699219"/><stop stop-opacity="1" stop-color="rgb(64.286804%, 56.587219%, 80.529785%)" offset="0.703125"/><stop stop-opacity="1" stop-color="rgb(64.491272%, 56.387329%, 80.729675%)" offset="0.707031"/><stop stop-opacity="1" stop-color="rgb(64.69574%, 56.188965%, 80.931091%)" offset="0.710938"/><stop stop-opacity="1" stop-color="rgb(64.900208%, 55.989075%, 81.130981%)" offset="0.714844"/><stop stop-opacity="1" stop-color="rgb(65.106201%, 55.789185%, 81.332397%)" offset="0.71875"/><stop stop-opacity="1" stop-color="rgb(65.310669%, 55.589294%, 81.533813%)" offset="0.722656"/><stop stop-opacity="1" stop-color="rgb(65.515137%, 55.39093%, 81.735229%)" offset="0.726563"/><stop stop-opacity="1" stop-color="rgb(65.719604%, 55.19104%, 81.93512%)" offset="0.730469"/><stop stop-opacity="1" stop-color="rgb(65.924072%, 54.99115%, 82.136536%)" offset="0.734375"/><stop stop-opacity="1" stop-color="rgb(66.12854%, 54.79126%, 82.336426%)" offset="0.738281"/><stop stop-opacity="1" stop-color="rgb(66.334534%, 54.592896%, 82.537842%)" offset="0.742188"/><stop stop-opacity="1" stop-color="rgb(66.539001%, 54.393005%, 82.737732%)" offset="0.746094"/><stop stop-opacity="1" stop-color="rgb(66.743469%, 54.193115%, 82.939148%)" offset="0.75"/><stop stop-opacity="1" stop-color="rgb(66.947937%, 53.993225%, 83.140564%)" offset="0.753906"/><stop stop-opacity="1" stop-color="rgb(67.153931%, 53.794861%, 83.34198%)" offset="0.757812"/><stop stop-opacity="1" stop-color="rgb(67.358398%, 53.594971%, 83.54187%)" offset="0.761719"/><stop stop-opacity="1" stop-color="rgb(67.562866%, 53.395081%, 83.743286%)" offset="0.765625"/><stop stop-opacity="1" stop-color="rgb(67.767334%, 53.19519%, 83.943176%)" offset="0.769531"/><stop stop-opacity="1" stop-color="rgb(67.973328%, 52.996826%, 84.144592%)" offset="0.773438"/><stop stop-opacity="1" stop-color="rgb(68.177795%, 52.796936%, 84.344482%)" offset="0.777344"/><stop stop-opacity="1" stop-color="rgb(68.382263%, 52.597046%, 84.545898%)" offset="0.78125"/><stop stop-opacity="1" stop-color="rgb(68.586731%, 52.397156%, 84.747314%)" offset="0.785156"/><stop stop-opacity="1" stop-color="rgb(68.791199%, 52.198792%, 84.94873%)" offset="0.789062"/><stop stop-opacity="1" stop-color="rgb(68.995667%, 51.998901%, 85.148621%)" offset="0.792969"/><stop stop-opacity="1" stop-color="rgb(69.20166%, 51.799011%, 85.350037%)" offset="0.796875"/><stop stop-opacity="1" stop-color="rgb(69.406128%, 51.599121%, 85.549927%)" offset="0.800781"/><stop stop-opacity="1" stop-color="rgb(69.610596%, 51.400757%, 85.751343%)" offset="0.804688"/><stop stop-opacity="1" stop-color="rgb(69.815063%, 51.200867%, 85.951233%)" offset="0.808594"/><stop stop-opacity="1" stop-color="rgb(70.021057%, 51.000977%, 86.152649%)" offset="0.8125"/><stop stop-opacity="1" stop-color="rgb(70.225525%, 50.801086%, 86.352539%)" offset="0.816406"/><stop stop-opacity="1" stop-color="rgb(70.429993%, 50.602722%, 86.553955%)" offset="0.820312"/><stop stop-opacity="1" stop-color="rgb(70.63446%, 50.402832%, 86.755371%)" offset="0.824219"/><stop stop-opacity="1" stop-color="rgb(70.838928%, 50.202942%, 86.956787%)" offset="0.828125"/><stop stop-opacity="1" stop-color="rgb(71.043396%, 50.003052%, 87.156677%)" offset="0.832031"/><stop stop-opacity="1" stop-color="rgb(71.24939%, 49.804688%, 87.358093%)" offset="0.835938"/><stop stop-opacity="1" stop-color="rgb(71.453857%, 49.604797%, 87.557983%)" offset="0.839844"/><stop stop-opacity="1" stop-color="rgb(71.658325%, 49.404907%, 87.759399%)" offset="0.84375"/><stop stop-opacity="1" stop-color="rgb(71.862793%, 49.205017%, 87.95929%)" offset="0.847656"/><stop stop-opacity="1" stop-color="rgb(72.068787%, 49.006653%, 88.160706%)" offset="0.851562"/><stop stop-opacity="1" stop-color="rgb(72.273254%, 48.806763%, 88.362122%)" offset="0.855469"/><stop stop-opacity="1" stop-color="rgb(72.477722%, 48.606873%, 88.563538%)" offset="0.859375"/><stop stop-opacity="1" stop-color="rgb(72.68219%, 48.406982%, 88.763428%)" offset="0.863281"/><stop stop-opacity="1" stop-color="rgb(72.886658%, 48.208618%, 88.964844%)" offset="0.867188"/><stop stop-opacity="1" stop-color="rgb(73.091125%, 48.008728%, 89.164734%)" offset="0.871094"/><stop stop-opacity="1" stop-color="rgb(73.297119%, 47.808838%, 89.36615%)" offset="0.875"/><stop stop-opacity="1" stop-color="rgb(73.501587%, 47.608948%, 89.56604%)" offset="0.878906"/><stop stop-opacity="1" stop-color="rgb(73.706055%, 47.410583%, 89.767456%)" offset="0.882812"/><stop stop-opacity="1" stop-color="rgb(73.910522%, 47.210693%, 89.968872%)" offset="0.886719"/><stop stop-opacity="1" stop-color="rgb(74.116516%, 47.010803%, 90.170288%)" offset="0.890625"/><stop stop-opacity="1" stop-color="rgb(74.320984%, 46.810913%, 90.370178%)" offset="0.894531"/><stop stop-opacity="1" stop-color="rgb(74.525452%, 46.612549%, 90.571594%)" offset="0.898438"/><stop stop-opacity="1" stop-color="rgb(74.729919%, 46.412659%, 90.771484%)" offset="0.902344"/><stop stop-opacity="1" stop-color="rgb(74.935913%, 46.212769%, 90.9729%)" offset="0.90625"/><stop stop-opacity="1" stop-color="rgb(75.140381%, 46.012878%, 91.172791%)" offset="0.910156"/><stop stop-opacity="1" stop-color="rgb(75.344849%, 45.814514%, 91.374207%)" offset="0.914063"/><stop stop-opacity="1" stop-color="rgb(75.549316%, 45.614624%, 91.575623%)" offset="0.917969"/><stop stop-opacity="1" stop-color="rgb(75.753784%, 45.414734%, 91.777039%)" offset="0.921875"/><stop stop-opacity="1" stop-color="rgb(75.958252%, 45.214844%, 91.976929%)" offset="0.925781"/><stop stop-opacity="1" stop-color="rgb(76.164246%, 45.014954%, 92.178345%)" offset="0.929688"/><stop stop-opacity="1" stop-color="rgb(76.368713%, 44.815063%, 92.378235%)" offset="0.933594"/><stop stop-opacity="1" stop-color="rgb(76.573181%, 44.616699%, 92.579651%)" offset="0.9375"/><stop stop-opacity="1" stop-color="rgb(76.73645%, 44.458008%, 92.738342%)" offset="1"/></linearGradient><clipPath id="a353d4475d"><path d="M 0 0 L 55.003906 0 L 55.003906 55.003906 L 0 55.003906 Z M 0 0 " clip-rule="nonzero"/></clipPath></defs><g clip-path="url(#f613c26ed9)"><g clip-path="url(#bc69383b92)"><path fill="url(#67e2a5c590)" d="M 0.15625 0.15625 L 0.15625 55.003906 L 55.003906 55.003906 L 55.003906 0.15625 Z M 0.15625 0.15625 " fill-rule="nonzero"/></g></g><g clip-path="url(#a353d4475d)"><path fill="#ffffff" d="M 27.75 55.5 C 12.441406 55.5 0 43.058594 0 27.75 C 0 12.441406 12.441406 0 27.75 0 C 43.046875 0 55.5 12.441406 55.5 27.75 C 55.5 43.058594 43.046875 55.5 27.75 55.5 Z M 27.75 0.3125 C 12.621094 0.3125 0.3125 12.621094 0.3125 27.75 C 0.3125 42.878906 12.621094 55.1875 27.75 55.1875 C 42.878906 55.1875 55.1875 42.878906 55.1875 27.75 C 55.1875 12.621094 42.878906 0.3125 27.75 0.3125 Z M 27.75 0.3125 " fill-opacity="1" fill-rule="nonzero"/></g><g fill="#ffffff" fill-opacity="1"><g transform="translate(16.708935, 34.238522)"><g><path d="M 10.140625 -5.65625 C 10.140625 -3.757812 9.75 -2.3125 8.96875 -1.3125 C 8.1875 -0.3125 7.039062 0.1875 5.53125 0.1875 C 4.039062 0.1875 2.898438 -0.300781 2.109375 -1.28125 C 1.316406 -2.269531 0.910156 -3.679688 0.890625 -5.515625 L 0.890625 -8.03125 C 0.890625 -9.945312 1.285156 -11.398438 2.078125 -12.390625 C 2.867188 -13.378906 4.007812 -13.875 5.5 -13.875 C 7 -13.875 8.140625 -13.382812 8.921875 -12.40625 C 9.710938 -11.425781 10.117188 -10.015625 10.140625 -8.171875 Z M 7.421875 -8.421875 C 7.421875 -9.554688 7.265625 -10.378906 6.953125 -10.890625 C 6.648438 -11.410156 6.171875 -11.671875 5.515625 -11.671875 C 4.867188 -11.671875 4.394531 -11.425781 4.09375 -10.9375 C 3.789062 -10.445312 3.628906 -9.675781 3.609375 -8.625 L 3.609375 -5.296875 C 3.609375 -4.179688 3.757812 -3.351562 4.0625 -2.8125 C 4.363281 -2.269531 4.851562 -2 5.53125 -2 C 6.1875 -2 6.660156 -2.257812 6.953125 -2.78125 C 7.253906 -3.300781 7.410156 -4.097656 7.421875 -5.171875 Z M 7.421875 -8.421875 "/></g></g></g><g fill="#ffffff" fill-opacity="1"><g transform="translate(27.748967, 34.238522)"><g><path d="M 3.6875 -8.046875 L 5.140625 -8.046875 C 5.828125 -8.046875 6.335938 -8.21875 6.671875 -8.5625 C 7.003906 -8.90625 7.171875 -9.363281 7.171875 -9.9375 C 7.171875 -10.488281 7.003906 -10.914062 6.671875 -11.21875 C 6.347656 -11.53125 5.894531 -11.6875 5.3125 -11.6875 C 4.800781 -11.6875 4.367188 -11.539062 4.015625 -11.25 C 3.660156 -10.96875 3.484375 -10.597656 3.484375 -10.140625 L 0.765625 -10.140625 C 0.765625 -10.859375 0.957031 -11.5 1.34375 -12.0625 C 1.726562 -12.632812 2.265625 -13.078125 2.953125 -13.390625 C 3.648438 -13.710938 4.414062 -13.875 5.25 -13.875 C 6.695312 -13.875 7.832031 -13.523438 8.65625 -12.828125 C 9.476562 -12.140625 9.890625 -11.1875 9.890625 -9.96875 C 9.890625 -9.34375 9.695312 -8.765625 9.3125 -8.234375 C 8.925781 -7.710938 8.425781 -7.3125 7.8125 -7.03125 C 8.582031 -6.757812 9.15625 -6.347656 9.53125 -5.796875 C 9.914062 -5.242188 10.109375 -4.585938 10.109375 -3.828125 C 10.109375 -2.617188 9.660156 -1.644531 8.765625 -0.90625 C 7.878906 -0.175781 6.707031 0.1875 5.25 0.1875 C 3.882812 0.1875 2.769531 -0.171875 1.90625 -0.890625 C 1.039062 -1.609375 0.609375 -2.5625 0.609375 -3.75 L 3.3125 -3.75 C 3.3125 -3.238281 3.503906 -2.816406 3.890625 -2.484375 C 4.273438 -2.160156 4.75 -2 5.3125 -2 C 5.957031 -2 6.460938 -2.171875 6.828125 -2.515625 C 7.203125 -2.859375 7.390625 -3.3125 7.390625 -3.875 C 7.390625 -5.238281 6.632812 -5.921875 5.125 -5.921875 L 3.6875 -5.921875 Z M 3.6875 -8.046875 "/></g></g></g></svg>