<svg xmlns="http://www.w3.org/2000/svg" xmlns:xlink="http://www.w3.org/1999/xlink" width="324" zoomAndPan="magnify" viewBox="0 0 242.87999 242.999999" height="324" preserveAspectRatio="xMidYMid meet" version="1.0"><defs><clipPath id="48556cee24"><path d="M 0 0.0585938 L 242.128906 0.0585938 L 242.128906 242.191406 L 0 242.191406 Z M 0 0.0585938 " clip-rule="nonzero"/></clipPath><clipPath id="8544398e65"><path d="M 59.179688 70.335938 L 183.621094 70.335938 L 183.621094 172.285156 L 59.179688 172.285156 Z M 59.179688 70.335938 " clip-rule="nonzero"/></clipPath></defs><g clip-path="url(#48556cee24)"><path fill="#000000" d="M 209.378906 0.0585938 L 32.75 0.0585938 C 14.808594 0.0585938 0 14.867188 0 32.808594 L 0 209.441406 C 0 227.382812 14.808594 242.191406 32.75 242.191406 L 209.378906 242.191406 C 227.324219 242.191406 242.128906 227.382812 242.128906 209.441406 L 242.128906 32.808594 C 242.128906 14.867188 227.324219 0.0585938 209.378906 0.0585938 Z M 234.894531 35.269531 L 234.894531 209.441406 C 234.894531 223.378906 223.320312 234.957031 209.378906 234.957031 L 32.75 234.957031 C 18.8125 234.957031 7.234375 223.378906 7.234375 209.441406 L 7.234375 32.808594 C 7.234375 18.871094 18.8125 7.296875 32.75 7.296875 L 209.378906 7.296875 C 223.320312 7.296875 234.894531 18.871094 234.894531 32.808594 Z M 234.894531 35.269531 " fill-opacity="1" fill-rule="nonzero"/></g><g clip-path="url(#8544398e65)"><path fill="#000000" d="M 165.84375 83.632812 L 147.589844 83.632812 L 142.191406 76.9375 C 138.800781 72.742188 133.757812 70.335938 128.351562 70.335938 L 114.449219 70.335938 C 109.050781 70.335938 104 72.742188 100.617188 76.9375 L 95.21875 83.632812 L 76.957031 83.632812 C 67.171875 83.632812 59.203125 91.582031 59.203125 101.347656 L 59.203125 154.570312 C 59.203125 164.34375 67.171875 172.285156 76.957031 172.285156 L 165.84375 172.285156 C 175.636719 172.285156 183.597656 164.335938 183.597656 154.570312 L 183.597656 101.347656 C 183.597656 91.582031 175.628906 83.632812 165.84375 83.632812 Z M 174.71875 154.570312 C 174.71875 159.453125 170.738281 163.425781 165.84375 163.425781 L 76.957031 163.425781 C 72.066406 163.425781 68.082031 159.453125 68.082031 154.570312 L 68.082031 101.347656 C 68.082031 96.464844 72.066406 92.492188 76.957031 92.492188 L 97.332031 92.492188 C 98.675781 92.492188 99.945312 91.882812 100.792969 90.839844 L 107.535156 82.507812 C 109.226562 80.40625 111.746094 79.207031 114.449219 79.207031 L 128.359375 79.207031 C 131.0625 79.207031 133.582031 80.40625 135.273438 82.507812 L 142.007812 90.847656 C 142.855469 91.890625 144.125 92.5 145.46875 92.5 L 165.84375 92.5 C 170.738281 92.5 174.71875 96.472656 174.71875 101.355469 Z M 121.402344 96.9375 C 104.25 96.9375 90.300781 110.851562 90.300781 127.964844 C 90.300781 145.074219 104.25 158.988281 121.402344 158.988281 C 138.550781 158.988281 152.5 145.074219 152.5 127.964844 C 152.5 110.851562 138.550781 96.9375 121.402344 96.9375 Z M 121.402344 150.121094 C 109.152344 150.121094 99.183594 140.175781 99.183594 127.953125 C 99.183594 115.734375 109.152344 105.796875 121.402344 105.796875 C 133.648438 105.796875 143.617188 115.742188 143.617188 127.964844 C 143.617188 140.183594 133.648438 150.121094 121.402344 150.121094 Z M 121.402344 150.121094 " fill-opacity="1" fill-rule="nonzero"/></g></svg>