<svg xmlns="http://www.w3.org/2000/svg" xmlns:xlink="http://www.w3.org/1999/xlink" width="337" zoomAndPan="magnify" viewBox="0 0 252.75 83.249999" height="111" preserveAspectRatio="xMidYMid meet" version="1.0"><defs><g/></defs><g fill="#000000" fill-opacity="1"><g transform="translate(1.387985, 59.608505)"><g><path d="M 24.890625 -57.453125 C 27.941406 -57.453125 30.925781 -57.003906 33.84375 -56.109375 C 36.769531 -55.222656 38.9375 -54.347656 40.34375 -53.484375 L 42.40625 -52.109375 L 37.203125 -41.859375 C 36.796875 -42.128906 36.226562 -42.476562 35.5 -42.90625 C 34.769531 -43.34375 33.398438 -43.925781 31.390625 -44.65625 C 29.378906 -45.382812 27.507812 -45.75 25.78125 -45.75 C 23.632812 -45.75 21.976562 -45.289062 20.8125 -44.375 C 19.65625 -43.46875 19.078125 -42.238281 19.078125 -40.6875 C 19.078125 -39.914062 19.347656 -39.195312 19.890625 -38.53125 C 20.441406 -37.875 21.378906 -37.171875 22.703125 -36.421875 C 24.023438 -35.671875 25.1875 -35.066406 26.1875 -34.609375 C 27.195312 -34.148438 28.75 -33.460938 30.84375 -32.546875 C 34.488281 -31.003906 37.597656 -28.898438 40.171875 -26.234375 C 42.753906 -23.566406 44.046875 -20.546875 44.046875 -17.171875 C 44.046875 -13.929688 43.460938 -11.101562 42.296875 -8.6875 C 41.140625 -6.269531 39.546875 -4.375 37.515625 -3 C 35.484375 -1.632812 33.234375 -0.625 30.765625 0.03125 C 28.304688 0.695312 25.644531 1.03125 22.78125 1.03125 C 20.3125 1.03125 17.890625 0.773438 15.515625 0.265625 C 13.148438 -0.234375 11.171875 -0.859375 9.578125 -1.609375 C 7.984375 -2.359375 6.546875 -3.097656 5.265625 -3.828125 C 3.984375 -4.554688 3.050781 -5.171875 2.46875 -5.671875 L 1.578125 -6.421875 L 8 -17.234375 C 8.550781 -16.773438 9.300781 -16.191406 10.25 -15.484375 C 11.207031 -14.785156 12.90625 -13.84375 15.34375 -12.65625 C 17.789062 -11.46875 19.945312 -10.875 21.8125 -10.875 C 27.238281 -10.875 29.953125 -12.71875 29.953125 -16.40625 C 29.953125 -17.1875 29.757812 -17.90625 29.375 -18.5625 C 28.988281 -19.226562 28.304688 -19.890625 27.328125 -20.546875 C 26.347656 -21.210938 25.476562 -21.738281 24.71875 -22.125 C 23.96875 -22.507812 22.738281 -23.097656 21.03125 -23.890625 C 19.320312 -24.691406 18.054688 -25.300781 17.234375 -25.71875 C 13.816406 -27.40625 11.171875 -29.515625 9.296875 -32.046875 C 7.429688 -34.578125 6.5 -37.300781 6.5 -40.21875 C 6.5 -45.28125 8.367188 -49.414062 12.109375 -52.625 C 15.847656 -55.84375 20.109375 -57.453125 24.890625 -57.453125 Z M 24.890625 -57.453125 "/></g></g></g><g fill="#000000" fill-opacity="1"><g transform="translate(40.913627, 59.608505)"><g><path d="M 1.578125 -28.25 C 1.578125 -36.40625 4.359375 -43.3125 9.921875 -48.96875 C 15.484375 -54.625 22.1875 -57.453125 30.03125 -57.453125 C 37.914062 -57.453125 44.613281 -54.632812 50.125 -49 C 55.644531 -43.375 58.40625 -36.457031 58.40625 -28.25 C 58.40625 -19.988281 55.691406 -13.039062 50.265625 -7.40625 C 44.835938 -1.78125 38.09375 1.03125 30.03125 1.03125 C 21.769531 1.03125 14.960938 -1.757812 9.609375 -7.34375 C 4.253906 -12.9375 1.578125 -19.90625 1.578125 -28.25 Z M 15.453125 -28.25 C 15.453125 -25.28125 15.90625 -22.578125 16.8125 -20.140625 C 17.726562 -17.703125 19.328125 -15.640625 21.609375 -13.953125 C 23.890625 -12.265625 26.695312 -11.421875 30.03125 -11.421875 C 34.8125 -11.421875 38.421875 -13.0625 40.859375 -16.34375 C 43.296875 -19.625 44.515625 -23.59375 44.515625 -28.25 C 44.515625 -32.851562 43.269531 -36.804688 40.78125 -40.109375 C 38.300781 -43.410156 34.71875 -45.0625 30.03125 -45.0625 C 25.375 -45.0625 21.78125 -43.410156 19.25 -40.109375 C 16.71875 -36.804688 15.453125 -32.851562 15.453125 -28.25 Z M 15.453125 -28.25 "/></g></g></g><g fill="#000000" fill-opacity="1"><g transform="translate(94.458107, 59.608505)"><g><path d="M 16.953125 -56.421875 L 16.953125 -11.28125 L 36.390625 -11.28125 L 36.390625 0 L 4.109375 0 L 4.109375 -56.421875 Z M 16.953125 -56.421875 "/></g></g></g><g fill="#000000" fill-opacity="1"><g transform="translate(126.666606, 59.608505)"><g/></g></g><g fill="#000000" fill-opacity="1"><g transform="translate(138.906822, 59.608505)"><g><path d="M 4.109375 -56.421875 L 24.6875 -56.421875 C 30.4375 -56.421875 35.085938 -54.9375 38.640625 -51.96875 C 42.191406 -49.007812 43.96875 -44.703125 43.96875 -39.046875 C 43.96875 -33.398438 42.164062 -28.96875 38.5625 -25.75 C 34.96875 -22.53125 30.34375 -20.921875 24.6875 -20.921875 L 16.953125 -20.921875 L 16.953125 0 L 4.109375 0 Z M 16.953125 -31.1875 L 20.578125 -31.1875 C 23.453125 -31.1875 25.8125 -31.765625 27.65625 -32.921875 C 29.507812 -34.085938 30.4375 -35.992188 30.4375 -38.640625 C 30.4375 -41.328125 29.507812 -43.25 27.65625 -44.40625 C 25.8125 -45.570312 23.453125 -46.15625 20.578125 -46.15625 L 16.953125 -46.15625 Z M 16.953125 -31.1875 "/></g></g></g><g fill="#000000" fill-opacity="1"><g transform="translate(178.022158, 59.608505)"><g><path d="M 16.953125 -56.421875 L 16.953125 0 L 4.109375 0 L 4.109375 -56.421875 Z M 16.953125 -56.421875 "/></g></g></g><g fill="#000000" fill-opacity="1"><g transform="translate(192.655827, 59.608505)"><g><path d="M 56.90625 0 L 40.28125 0 L 26.953125 -19.21875 L 13.609375 0 L -2.328125 0 L 19.015625 -30.359375 L 1.234375 -56.421875 L 16.546875 -56.421875 L 26.953125 -41.03125 L 37.34375 -56.421875 L 53.34375 -56.421875 L 34.875 -30.359375 Z M 56.90625 0 "/></g></g></g><g fill="#000000" fill-opacity="1"><g transform="translate(3.513743, 75.238914)"><g><path d="M 8.703125 -2.96875 C 9.203125 -2.96875 9.6875 -3.039062 10.15625 -3.1875 C 10.625 -3.34375 10.96875 -3.488281 11.1875 -3.625 L 11.53125 -3.859375 L 12.921875 -1.0625 C 12.867188 -1.03125 12.800781 -0.984375 12.71875 -0.921875 C 12.644531 -0.867188 12.457031 -0.757812 12.15625 -0.59375 C 11.863281 -0.4375 11.546875 -0.300781 11.203125 -0.1875 C 10.867188 -0.0703125 10.425781 0.03125 9.875 0.125 C 9.332031 0.21875 8.773438 0.265625 8.203125 0.265625 C 6.859375 0.265625 5.585938 -0.0625 4.390625 -0.71875 C 3.191406 -1.375 2.226562 -2.273438 1.5 -3.421875 C 0.769531 -4.578125 0.40625 -5.828125 0.40625 -7.171875 C 0.40625 -8.179688 0.617188 -9.148438 1.046875 -10.078125 C 1.472656 -11.003906 2.046875 -11.800781 2.765625 -12.46875 C 3.484375 -13.132812 4.316406 -13.660156 5.265625 -14.046875 C 6.222656 -14.441406 7.203125 -14.640625 8.203125 -14.640625 C 9.128906 -14.640625 9.984375 -14.53125 10.765625 -14.3125 C 11.546875 -14.09375 12.101562 -13.875 12.4375 -13.65625 L 12.921875 -13.328125 L 11.53125 -10.53125 C 11.445312 -10.601562 11.320312 -10.6875 11.15625 -10.78125 C 11 -10.882812 10.675781 -11.015625 10.1875 -11.171875 C 9.695312 -11.335938 9.203125 -11.421875 8.703125 -11.421875 C 7.910156 -11.421875 7.195312 -11.289062 6.5625 -11.03125 C 5.9375 -10.78125 5.441406 -10.445312 5.078125 -10.03125 C 4.710938 -9.613281 4.429688 -9.160156 4.234375 -8.671875 C 4.046875 -8.191406 3.953125 -7.703125 3.953125 -7.203125 C 3.953125 -6.109375 4.363281 -5.128906 5.1875 -4.265625 C 6.007812 -3.398438 7.179688 -2.96875 8.703125 -2.96875 Z M 8.703125 -2.96875 "/></g></g></g><g fill="#000000" fill-opacity="1"><g transform="translate(16.64398, 75.238914)"><g><path d="M 1.046875 0 L 1.046875 -8.953125 L 4.125 -8.953125 L 4.125 -7.65625 L 4.171875 -7.65625 C 4.191406 -7.695312 4.226562 -7.753906 4.28125 -7.828125 C 4.332031 -7.898438 4.441406 -8.019531 4.609375 -8.1875 C 4.785156 -8.363281 4.972656 -8.519531 5.171875 -8.65625 C 5.367188 -8.800781 5.625 -8.925781 5.9375 -9.03125 C 6.257812 -9.144531 6.582031 -9.203125 6.90625 -9.203125 C 7.238281 -9.203125 7.566406 -9.15625 7.890625 -9.0625 C 8.222656 -8.96875 8.460938 -8.875 8.609375 -8.78125 L 8.859375 -8.65625 L 7.5625 -6.03125 C 7.1875 -6.351562 6.65625 -6.515625 5.96875 -6.515625 C 5.59375 -6.515625 5.269531 -6.429688 5 -6.265625 C 4.738281 -6.109375 4.550781 -5.910156 4.4375 -5.671875 C 4.320312 -5.441406 4.238281 -5.242188 4.1875 -5.078125 C 4.144531 -4.921875 4.125 -4.796875 4.125 -4.703125 L 4.125 0 Z M 1.046875 0 "/></g></g></g><g fill="#000000" fill-opacity="1"><g transform="translate(25.327725, 75.238914)"><g><path d="M 7.828125 -8.953125 L 11.390625 -8.953125 L 4.359375 4.53125 L 0.796875 4.53125 L 3.890625 -1.390625 L -0.34375 -8.953125 L 3.203125 -8.953125 L 5.703125 -4.359375 Z M 7.828125 -8.953125 "/></g></g></g><g fill="#000000" fill-opacity="1"><g transform="translate(36.365492, 75.238914)"><g><path d="M 10.25 -7.828125 C 11.09375 -6.921875 11.515625 -5.804688 11.515625 -4.484375 C 11.515625 -3.160156 11.09375 -2.035156 10.25 -1.109375 C 9.414062 -0.191406 8.351562 0.265625 7.0625 0.265625 C 5.875 0.265625 4.894531 -0.109375 4.125 -0.859375 L 4.125 4.53125 L 1.046875 4.53125 L 1.046875 -8.953125 L 4.09375 -8.953125 L 4.09375 -7.9375 L 4.125 -7.9375 C 4.894531 -8.78125 5.875 -9.203125 7.0625 -9.203125 C 8.351562 -9.203125 9.414062 -8.742188 10.25 -7.828125 Z M 7.625 -2.96875 C 8.03125 -3.363281 8.234375 -3.867188 8.234375 -4.484375 C 8.234375 -5.097656 8.039062 -5.597656 7.65625 -5.984375 C 7.269531 -6.378906 6.765625 -6.578125 6.140625 -6.578125 C 5.535156 -6.578125 5.035156 -6.378906 4.640625 -5.984375 C 4.253906 -5.585938 4.0625 -5.085938 4.0625 -4.484375 C 4.0625 -3.867188 4.257812 -3.363281 4.65625 -2.96875 C 5.0625 -2.570312 5.554688 -2.375 6.140625 -2.375 C 6.734375 -2.375 7.226562 -2.570312 7.625 -2.96875 Z M 7.625 -2.96875 "/></g></g></g><g fill="#000000" fill-opacity="1"><g transform="translate(48.275114, 75.238914)"><g><path d="M 1.5625 -8.953125 L 1.5625 -12.28125 L 4.65625 -12.28125 L 4.65625 -8.953125 L 6.53125 -8.953125 L 6.53125 -6.59375 L 4.65625 -6.59375 L 4.65625 -3.75 C 4.65625 -2.925781 4.890625 -2.515625 5.359375 -2.515625 C 5.472656 -2.515625 5.59375 -2.535156 5.71875 -2.578125 C 5.84375 -2.628906 5.941406 -2.675781 6.015625 -2.71875 L 6.125 -2.796875 L 6.890625 -0.296875 C 6.222656 0.078125 5.46875 0.265625 4.625 0.265625 C 4.039062 0.265625 3.539062 0.164062 3.125 -0.03125 C 2.707031 -0.238281 2.390625 -0.515625 2.171875 -0.859375 C 1.953125 -1.203125 1.796875 -1.5625 1.703125 -1.9375 C 1.609375 -2.320312 1.5625 -2.726562 1.5625 -3.15625 L 1.5625 -6.59375 L 0.28125 -6.59375 L 0.28125 -8.953125 Z M 1.5625 -8.953125 "/></g></g></g><g fill="#000000" fill-opacity="1"><g transform="translate(55.162815, 75.238914)"><g><path d="M 1.890625 -1.0625 C 0.898438 -1.945312 0.40625 -3.078125 0.40625 -4.453125 C 0.40625 -5.835938 0.921875 -6.972656 1.953125 -7.859375 C 2.984375 -8.753906 4.265625 -9.203125 5.796875 -9.203125 C 7.285156 -9.203125 8.546875 -8.753906 9.578125 -7.859375 C 10.609375 -6.960938 11.125 -5.828125 11.125 -4.453125 C 11.125 -3.085938 10.617188 -1.957031 9.609375 -1.0625 C 8.609375 -0.175781 7.335938 0.265625 5.796875 0.265625 C 4.191406 0.265625 2.890625 -0.175781 1.890625 -1.0625 Z M 4.265625 -5.984375 C 3.867188 -5.585938 3.671875 -5.082031 3.671875 -4.46875 C 3.671875 -3.851562 3.863281 -3.347656 4.25 -2.953125 C 4.632812 -2.566406 5.140625 -2.375 5.765625 -2.375 C 6.367188 -2.375 6.863281 -2.570312 7.25 -2.96875 C 7.644531 -3.363281 7.84375 -3.863281 7.84375 -4.46875 C 7.84375 -5.082031 7.640625 -5.585938 7.234375 -5.984375 C 6.835938 -6.378906 6.347656 -6.578125 5.765625 -6.578125 C 5.171875 -6.578125 4.671875 -6.378906 4.265625 -5.984375 Z M 4.265625 -5.984375 "/></g></g></g><g fill="#000000" fill-opacity="1"><g transform="translate(66.688826, 75.238914)"><g/></g></g><g fill="#000000" fill-opacity="1"><g transform="translate(71.449195, 75.238914)"><g><path d="M 5.8125 -6.671875 C 5.226562 -6.671875 4.722656 -6.457031 4.296875 -6.03125 C 3.878906 -5.601562 3.671875 -5.085938 3.671875 -4.484375 C 3.671875 -3.867188 3.878906 -3.34375 4.296875 -2.90625 C 4.722656 -2.476562 5.226562 -2.265625 5.8125 -2.265625 C 6.082031 -2.265625 6.34375 -2.296875 6.59375 -2.359375 C 6.84375 -2.429688 7.03125 -2.503906 7.15625 -2.578125 L 7.3125 -2.6875 L 8.359375 -0.546875 C 8.273438 -0.484375 8.160156 -0.40625 8.015625 -0.3125 C 7.867188 -0.226562 7.535156 -0.113281 7.015625 0.03125 C 6.503906 0.1875 5.953125 0.265625 5.359375 0.265625 C 4.046875 0.265625 2.890625 -0.195312 1.890625 -1.125 C 0.898438 -2.050781 0.40625 -3.160156 0.40625 -4.453125 C 0.40625 -5.753906 0.898438 -6.867188 1.890625 -7.796875 C 2.890625 -8.734375 4.046875 -9.203125 5.359375 -9.203125 C 5.953125 -9.203125 6.5 -9.128906 7 -8.984375 C 7.5 -8.847656 7.851562 -8.710938 8.0625 -8.578125 L 8.359375 -8.375 L 7.3125 -6.265625 C 6.925781 -6.535156 6.425781 -6.671875 5.8125 -6.671875 Z M 5.8125 -6.671875 "/></g></g></g><g fill="#000000" fill-opacity="1"><g transform="translate(80.01087, 75.238914)"><g><path d="M 1.890625 -1.0625 C 0.898438 -1.945312 0.40625 -3.078125 0.40625 -4.453125 C 0.40625 -5.835938 0.921875 -6.972656 1.953125 -7.859375 C 2.984375 -8.753906 4.265625 -9.203125 5.796875 -9.203125 C 7.285156 -9.203125 8.546875 -8.753906 9.578125 -7.859375 C 10.609375 -6.960938 11.125 -5.828125 11.125 -4.453125 C 11.125 -3.085938 10.617188 -1.957031 9.609375 -1.0625 C 8.609375 -0.175781 7.335938 0.265625 5.796875 0.265625 C 4.191406 0.265625 2.890625 -0.175781 1.890625 -1.0625 Z M 4.265625 -5.984375 C 3.867188 -5.585938 3.671875 -5.082031 3.671875 -4.46875 C 3.671875 -3.851562 3.863281 -3.347656 4.25 -2.953125 C 4.632812 -2.566406 5.140625 -2.375 5.765625 -2.375 C 6.367188 -2.375 6.863281 -2.570312 7.25 -2.96875 C 7.644531 -3.363281 7.84375 -3.863281 7.84375 -4.46875 C 7.84375 -5.082031 7.640625 -5.585938 7.234375 -5.984375 C 6.835938 -6.378906 6.347656 -6.578125 5.765625 -6.578125 C 5.171875 -6.578125 4.671875 -6.378906 4.265625 -5.984375 Z M 4.265625 -5.984375 "/></g></g></g><g fill="#000000" fill-opacity="1"><g transform="translate(91.536881, 75.238914)"><g><path d="M 1.046875 0 L 1.046875 -8.953125 L 4.125 -8.953125 L 4.125 -8 L 4.171875 -8 C 4.972656 -8.800781 5.828125 -9.203125 6.734375 -9.203125 C 7.378906 -9.203125 7.988281 -9.066406 8.5625 -8.796875 C 9.132812 -8.535156 9.566406 -8.125 9.859375 -7.5625 C 10.765625 -8.65625 11.75 -9.203125 12.8125 -9.203125 C 13.769531 -9.203125 14.585938 -8.9375 15.265625 -8.40625 C 15.953125 -7.875 16.296875 -7.035156 16.296875 -5.890625 L 16.296875 0 L 13.21875 0 L 13.21875 -5.0625 C 13.21875 -5.53125 13.085938 -5.925781 12.828125 -6.25 C 12.566406 -6.570312 12.171875 -6.734375 11.640625 -6.734375 C 11.191406 -6.734375 10.847656 -6.59375 10.609375 -6.3125 C 10.367188 -6.039062 10.238281 -5.710938 10.21875 -5.328125 L 10.21875 0 L 7.125 0 L 7.125 -5.0625 C 7.125 -5.53125 6.992188 -5.925781 6.734375 -6.25 C 6.472656 -6.570312 6.082031 -6.734375 5.5625 -6.734375 C 5.082031 -6.734375 4.722656 -6.582031 4.484375 -6.28125 C 4.242188 -5.988281 4.125 -5.640625 4.125 -5.234375 L 4.125 0 Z M 1.046875 0 "/></g></g></g><g fill="#000000" fill-opacity="1"><g transform="translate(108.712552, 75.238914)"><g><path d="M 10.09375 -4.046875 L 3.609375 -4.046875 C 3.609375 -3.421875 3.8125 -2.957031 4.21875 -2.65625 C 4.625 -2.351562 5.066406 -2.203125 5.546875 -2.203125 C 6.046875 -2.203125 6.441406 -2.265625 6.734375 -2.390625 C 7.023438 -2.523438 7.351562 -2.789062 7.71875 -3.1875 L 9.953125 -2.078125 C 9.023438 -0.515625 7.476562 0.265625 5.3125 0.265625 C 3.96875 0.265625 2.8125 -0.195312 1.84375 -1.125 C 0.882812 -2.050781 0.40625 -3.164062 0.40625 -4.46875 C 0.40625 -5.769531 0.882812 -6.882812 1.84375 -7.8125 C 2.8125 -8.738281 3.96875 -9.203125 5.3125 -9.203125 C 6.738281 -9.203125 7.894531 -8.789062 8.78125 -7.96875 C 9.664062 -7.15625 10.109375 -5.988281 10.109375 -4.46875 C 10.109375 -4.257812 10.101562 -4.117188 10.09375 -4.046875 Z M 3.703125 -5.75 L 7.09375 -5.75 C 7.03125 -6.21875 6.847656 -6.578125 6.546875 -6.828125 C 6.253906 -7.078125 5.875 -7.203125 5.40625 -7.203125 C 4.894531 -7.203125 4.488281 -7.066406 4.1875 -6.796875 C 3.882812 -6.535156 3.722656 -6.1875 3.703125 -5.75 Z M 3.703125 -5.75 "/></g></g></g><g fill="#000000" fill-opacity="1"><g transform="translate(119.227202, 75.238914)"><g><path d="M 4.9375 -9.203125 C 5.445312 -9.203125 5.953125 -9.144531 6.453125 -9.03125 C 6.953125 -8.914062 7.320312 -8.800781 7.5625 -8.6875 L 7.9375 -8.515625 L 6.921875 -6.484375 C 6.222656 -6.859375 5.5625 -7.046875 4.9375 -7.046875 C 4.582031 -7.046875 4.332031 -7.003906 4.1875 -6.921875 C 4.039062 -6.847656 3.96875 -6.707031 3.96875 -6.5 C 3.96875 -6.457031 3.972656 -6.410156 3.984375 -6.359375 C 4.003906 -6.316406 4.03125 -6.273438 4.0625 -6.234375 C 4.09375 -6.191406 4.125 -6.15625 4.15625 -6.125 C 4.1875 -6.09375 4.234375 -6.0625 4.296875 -6.03125 C 4.367188 -6 4.425781 -5.972656 4.46875 -5.953125 C 4.507812 -5.929688 4.578125 -5.90625 4.671875 -5.875 C 4.765625 -5.84375 4.832031 -5.816406 4.875 -5.796875 C 4.925781 -5.773438 5.003906 -5.75 5.109375 -5.71875 C 5.222656 -5.6875 5.3125 -5.664062 5.375 -5.65625 C 5.726562 -5.550781 6.039062 -5.429688 6.3125 -5.296875 C 6.582031 -5.171875 6.863281 -5 7.15625 -4.78125 C 7.457031 -4.5625 7.6875 -4.28125 7.84375 -3.9375 C 8.007812 -3.601562 8.09375 -3.222656 8.09375 -2.796875 C 8.09375 -0.753906 6.679688 0.265625 3.859375 0.265625 C 3.210938 0.265625 2.601562 0.164062 2.03125 -0.03125 C 1.457031 -0.226562 1.039062 -0.425781 0.78125 -0.625 L 0.40625 -0.9375 L 1.65625 -3.046875 C 1.75 -2.960938 1.867188 -2.863281 2.015625 -2.75 C 2.171875 -2.644531 2.445312 -2.492188 2.84375 -2.296875 C 3.238281 -2.109375 3.582031 -2.015625 3.875 -2.015625 C 4.507812 -2.015625 4.828125 -2.234375 4.828125 -2.671875 C 4.828125 -2.867188 4.742188 -3.019531 4.578125 -3.125 C 4.421875 -3.238281 4.144531 -3.363281 3.75 -3.5 C 3.363281 -3.644531 3.0625 -3.773438 2.84375 -3.890625 C 2.28125 -4.179688 1.835938 -4.507812 1.515625 -4.875 C 1.191406 -5.238281 1.03125 -5.722656 1.03125 -6.328125 C 1.03125 -7.234375 1.378906 -7.9375 2.078125 -8.4375 C 2.785156 -8.945312 3.738281 -9.203125 4.9375 -9.203125 Z M 4.9375 -9.203125 "/></g></g></g><g fill="#000000" fill-opacity="1"><g transform="translate(127.806313, 75.238914)"><g/></g></g><g fill="#000000" fill-opacity="1"><g transform="translate(132.566682, 75.238914)"><g><path d="M 1.5625 -8.953125 L 1.5625 -12.28125 L 4.65625 -12.28125 L 4.65625 -8.953125 L 6.53125 -8.953125 L 6.53125 -6.59375 L 4.65625 -6.59375 L 4.65625 -3.75 C 4.65625 -2.925781 4.890625 -2.515625 5.359375 -2.515625 C 5.472656 -2.515625 5.59375 -2.535156 5.71875 -2.578125 C 5.84375 -2.628906 5.941406 -2.675781 6.015625 -2.71875 L 6.125 -2.796875 L 6.890625 -0.296875 C 6.222656 0.078125 5.46875 0.265625 4.625 0.265625 C 4.039062 0.265625 3.539062 0.164062 3.125 -0.03125 C 2.707031 -0.238281 2.390625 -0.515625 2.171875 -0.859375 C 1.953125 -1.203125 1.796875 -1.5625 1.703125 -1.9375 C 1.609375 -2.320312 1.5625 -2.726562 1.5625 -3.15625 L 1.5625 -6.59375 L 0.28125 -6.59375 L 0.28125 -8.953125 Z M 1.5625 -8.953125 "/></g></g></g><g fill="#000000" fill-opacity="1"><g transform="translate(139.454383, 75.238914)"><g><path d="M 1.890625 -1.0625 C 0.898438 -1.945312 0.40625 -3.078125 0.40625 -4.453125 C 0.40625 -5.835938 0.921875 -6.972656 1.953125 -7.859375 C 2.984375 -8.753906 4.265625 -9.203125 5.796875 -9.203125 C 7.285156 -9.203125 8.546875 -8.753906 9.578125 -7.859375 C 10.609375 -6.960938 11.125 -5.828125 11.125 -4.453125 C 11.125 -3.085938 10.617188 -1.957031 9.609375 -1.0625 C 8.609375 -0.175781 7.335938 0.265625 5.796875 0.265625 C 4.191406 0.265625 2.890625 -0.175781 1.890625 -1.0625 Z M 4.265625 -5.984375 C 3.867188 -5.585938 3.671875 -5.082031 3.671875 -4.46875 C 3.671875 -3.851562 3.863281 -3.347656 4.25 -2.953125 C 4.632812 -2.566406 5.140625 -2.375 5.765625 -2.375 C 6.367188 -2.375 6.863281 -2.570312 7.25 -2.96875 C 7.644531 -3.363281 7.84375 -3.863281 7.84375 -4.46875 C 7.84375 -5.082031 7.640625 -5.585938 7.234375 -5.984375 C 6.835938 -6.378906 6.347656 -6.578125 5.765625 -6.578125 C 5.171875 -6.578125 4.671875 -6.378906 4.265625 -5.984375 Z M 4.265625 -5.984375 "/></g></g></g><g fill="#000000" fill-opacity="1"><g transform="translate(150.980394, 75.238914)"><g/></g></g><g fill="#000000" fill-opacity="1"><g transform="translate(155.740762, 75.238914)"><g><path d="M 1.046875 0 L 1.046875 -8.953125 L 4.125 -8.953125 L 4.125 -7.65625 L 4.171875 -7.65625 C 4.191406 -7.695312 4.226562 -7.753906 4.28125 -7.828125 C 4.332031 -7.898438 4.441406 -8.019531 4.609375 -8.1875 C 4.785156 -8.363281 4.972656 -8.519531 5.171875 -8.65625 C 5.367188 -8.800781 5.625 -8.925781 5.9375 -9.03125 C 6.257812 -9.144531 6.582031 -9.203125 6.90625 -9.203125 C 7.238281 -9.203125 7.566406 -9.15625 7.890625 -9.0625 C 8.222656 -8.96875 8.460938 -8.875 8.609375 -8.78125 L 8.859375 -8.65625 L 7.5625 -6.03125 C 7.1875 -6.351562 6.65625 -6.515625 5.96875 -6.515625 C 5.59375 -6.515625 5.269531 -6.429688 5 -6.265625 C 4.738281 -6.109375 4.550781 -5.910156 4.4375 -5.671875 C 4.320312 -5.441406 4.238281 -5.242188 4.1875 -5.078125 C 4.144531 -4.921875 4.125 -4.796875 4.125 -4.703125 L 4.125 0 Z M 1.046875 0 "/></g></g></g><g fill="#000000" fill-opacity="1"><g transform="translate(164.424506, 75.238914)"><g><path d="M 10.09375 -4.046875 L 3.609375 -4.046875 C 3.609375 -3.421875 3.8125 -2.957031 4.21875 -2.65625 C 4.625 -2.351562 5.066406 -2.203125 5.546875 -2.203125 C 6.046875 -2.203125 6.441406 -2.265625 6.734375 -2.390625 C 7.023438 -2.523438 7.351562 -2.789062 7.71875 -3.1875 L 9.953125 -2.078125 C 9.023438 -0.515625 7.476562 0.265625 5.3125 0.265625 C 3.96875 0.265625 2.8125 -0.195312 1.84375 -1.125 C 0.882812 -2.050781 0.40625 -3.164062 0.40625 -4.46875 C 0.40625 -5.769531 0.882812 -6.882812 1.84375 -7.8125 C 2.8125 -8.738281 3.96875 -9.203125 5.3125 -9.203125 C 6.738281 -9.203125 7.894531 -8.789062 8.78125 -7.96875 C 9.664062 -7.15625 10.109375 -5.988281 10.109375 -4.46875 C 10.109375 -4.257812 10.101562 -4.117188 10.09375 -4.046875 Z M 3.703125 -5.75 L 7.09375 -5.75 C 7.03125 -6.21875 6.847656 -6.578125 6.546875 -6.828125 C 6.253906 -7.078125 5.875 -7.203125 5.40625 -7.203125 C 4.894531 -7.203125 4.488281 -7.066406 4.1875 -6.796875 C 3.882812 -6.535156 3.722656 -6.1875 3.703125 -5.75 Z M 3.703125 -5.75 "/></g></g></g><g fill="#000000" fill-opacity="1"><g transform="translate(174.939156, 75.238914)"><g><path d="M 1.65625 -1.09375 C 0.820312 -2.007812 0.40625 -3.128906 0.40625 -4.453125 C 0.40625 -5.785156 0.820312 -6.910156 1.65625 -7.828125 C 2.488281 -8.742188 3.550781 -9.203125 4.84375 -9.203125 C 6.03125 -9.203125 7.007812 -8.832031 7.78125 -8.09375 L 7.78125 -8.953125 L 10.859375 -8.953125 L 10.859375 0 L 7.8125 0 L 7.8125 -1.015625 L 7.78125 -1.015625 C 7.007812 -0.160156 6.03125 0.265625 4.84375 0.265625 C 3.550781 0.265625 2.488281 -0.1875 1.65625 -1.09375 Z M 4.265625 -5.984375 C 3.867188 -5.585938 3.671875 -5.082031 3.671875 -4.46875 C 3.671875 -3.851562 3.863281 -3.347656 4.25 -2.953125 C 4.632812 -2.566406 5.140625 -2.375 5.765625 -2.375 C 6.367188 -2.375 6.863281 -2.570312 7.25 -2.96875 C 7.644531 -3.363281 7.84375 -3.863281 7.84375 -4.46875 C 7.84375 -5.082031 7.640625 -5.585938 7.234375 -5.984375 C 6.835938 -6.378906 6.347656 -6.578125 5.765625 -6.578125 C 5.171875 -6.578125 4.671875 -6.378906 4.265625 -5.984375 Z M 4.265625 -5.984375 "/></g></g></g><g fill="#000000" fill-opacity="1"><g transform="translate(186.848779, 75.238914)"><g><path d="M 1.046875 0 L 1.046875 -15 L 4.125 -15 L 4.125 0 Z M 1.046875 0 "/></g></g></g><g fill="#000000" fill-opacity="1"><g transform="translate(192.027632, 75.238914)"><g/></g></g><g fill="#000000" fill-opacity="1"><g transform="translate(196.787989, 75.238914)"><g><path d="M 1.046875 -14.390625 L 5.515625 -14.390625 C 6.859375 -14.390625 7.929688 -14.097656 8.734375 -13.515625 C 9.535156 -12.941406 9.9375 -12.007812 9.9375 -10.71875 C 9.9375 -9.28125 9.335938 -8.253906 8.140625 -7.640625 C 10.191406 -7.273438 11.21875 -6.066406 11.21875 -4.015625 C 11.21875 -2.804688 10.796875 -1.832031 9.953125 -1.09375 C 9.117188 -0.363281 7.96875 0 6.5 0 L 1.046875 0 Z M 4.328125 -8.75 L 4.59375 -8.75 C 5.320312 -8.75 5.863281 -8.875 6.21875 -9.125 C 6.582031 -9.382812 6.765625 -9.804688 6.765625 -10.390625 C 6.765625 -11.367188 6.039062 -11.859375 4.59375 -11.859375 L 4.328125 -11.859375 Z M 4.328125 -2.53125 L 5.359375 -2.53125 C 6.960938 -2.53125 7.765625 -3.0625 7.765625 -4.125 C 7.765625 -4.769531 7.5625 -5.226562 7.15625 -5.5 C 6.757812 -5.78125 6.160156 -5.921875 5.359375 -5.921875 L 4.328125 -5.921875 Z M 4.328125 -2.53125 "/></g></g></g><g fill="#000000" fill-opacity="1"><g transform="translate(208.401196, 75.238914)"><g><path d="M 1.046875 0 L 1.046875 -8.953125 L 4.125 -8.953125 L 4.125 -7.65625 L 4.171875 -7.65625 C 4.191406 -7.695312 4.226562 -7.753906 4.28125 -7.828125 C 4.332031 -7.898438 4.441406 -8.019531 4.609375 -8.1875 C 4.785156 -8.363281 4.972656 -8.519531 5.171875 -8.65625 C 5.367188 -8.800781 5.625 -8.925781 5.9375 -9.03125 C 6.257812 -9.144531 6.582031 -9.203125 6.90625 -9.203125 C 7.238281 -9.203125 7.566406 -9.15625 7.890625 -9.0625 C 8.222656 -8.96875 8.460938 -8.875 8.609375 -8.78125 L 8.859375 -8.65625 L 7.5625 -6.03125 C 7.1875 -6.351562 6.65625 -6.515625 5.96875 -6.515625 C 5.59375 -6.515625 5.269531 -6.429688 5 -6.265625 C 4.738281 -6.109375 4.550781 -5.910156 4.4375 -5.671875 C 4.320312 -5.441406 4.238281 -5.242188 4.1875 -5.078125 C 4.144531 -4.921875 4.125 -4.796875 4.125 -4.703125 L 4.125 0 Z M 1.046875 0 "/></g></g></g><g fill="#000000" fill-opacity="1"><g transform="translate(217.08494, 75.238914)"><g><path d="M 1.65625 -1.09375 C 0.820312 -2.007812 0.40625 -3.128906 0.40625 -4.453125 C 0.40625 -5.785156 0.820312 -6.910156 1.65625 -7.828125 C 2.488281 -8.742188 3.550781 -9.203125 4.84375 -9.203125 C 6.03125 -9.203125 7.007812 -8.832031 7.78125 -8.09375 L 7.78125 -8.953125 L 10.859375 -8.953125 L 10.859375 0 L 7.8125 0 L 7.8125 -1.015625 L 7.78125 -1.015625 C 7.007812 -0.160156 6.03125 0.265625 4.84375 0.265625 C 3.550781 0.265625 2.488281 -0.1875 1.65625 -1.09375 Z M 4.265625 -5.984375 C 3.867188 -5.585938 3.671875 -5.082031 3.671875 -4.46875 C 3.671875 -3.851562 3.863281 -3.347656 4.25 -2.953125 C 4.632812 -2.566406 5.140625 -2.375 5.765625 -2.375 C 6.367188 -2.375 6.863281 -2.570312 7.25 -2.96875 C 7.644531 -3.363281 7.84375 -3.863281 7.84375 -4.46875 C 7.84375 -5.082031 7.640625 -5.585938 7.234375 -5.984375 C 6.835938 -6.378906 6.347656 -6.578125 5.765625 -6.578125 C 5.171875 -6.578125 4.671875 -6.378906 4.265625 -5.984375 Z M 4.265625 -5.984375 "/></g></g></g><g fill="#000000" fill-opacity="1"><g transform="translate(228.994562, 75.238914)"><g><path d="M 9.6875 -8.953125 L 5.265625 -2.359375 L 9.34375 -2.359375 L 9.34375 0 L 0.09375 0 L 4.515625 -6.59375 L 0.8125 -6.59375 L 0.8125 -8.953125 Z M 9.6875 -8.953125 "/></g></g></g><g fill="#000000" fill-opacity="1"><g transform="translate(238.776841, 75.238914)"><g><path d="M 1.34375 -13.921875 C 1.707031 -14.285156 2.140625 -14.46875 2.640625 -14.46875 C 3.140625 -14.46875 3.566406 -14.285156 3.921875 -13.921875 C 4.285156 -13.566406 4.46875 -13.140625 4.46875 -12.640625 C 4.46875 -12.140625 4.285156 -11.707031 3.921875 -11.34375 C 3.566406 -10.988281 3.140625 -10.8125 2.640625 -10.8125 C 2.140625 -10.8125 1.707031 -10.988281 1.34375 -11.34375 C 0.976562 -11.707031 0.796875 -12.140625 0.796875 -12.640625 C 0.796875 -13.140625 0.976562 -13.566406 1.34375 -13.921875 Z M 1.046875 -8.953125 L 1.046875 0 L 4.125 0 L 4.125 -8.953125 Z M 1.046875 -8.953125 "/></g></g></g><g fill="#000000" fill-opacity="1"><g transform="translate(244.04289, 75.238914)"><g><path d="M 1.046875 0 L 1.046875 -15 L 4.125 -15 L 4.125 0 Z M 1.046875 0 "/></g></g></g></svg>