<svg xmlns="http://www.w3.org/2000/svg" xmlns:xlink="http://www.w3.org/1999/xlink" width="94" zoomAndPan="magnify" viewBox="0 0 70.5 44.249999" height="59" preserveAspectRatio="xMidYMid meet" version="1.0"><defs><clipPath id="d0a095c6df"><path d="M 13 0.199219 L 27 0.199219 L 27 6 L 13 6 Z M 13 0.199219 " clip-rule="nonzero"/></clipPath><clipPath id="6300b294c7"><path d="M 0.515625 6 L 9 6 L 9 14 L 0.515625 14 Z M 0.515625 6 " clip-rule="nonzero"/></clipPath><clipPath id="e618bddb0d"><path d="M 1.617188 7 L 36.847656 7 L 36.847656 43.277344 L 1.617188 43.277344 Z M 1.617188 7 " clip-rule="nonzero"/></clipPath><clipPath id="a33cde5417"><path d="M 61.398438 23.179688 L 69.667969 23.179688 L 69.667969 31.523438 L 61.398438 31.523438 Z M 61.398438 23.179688 " clip-rule="nonzero"/></clipPath></defs><g clip-path="url(#d0a095c6df)"><path fill="#000000" d="M 13.882812 5.246094 C 13.882812 5.488281 14.128906 5.675781 14.375 5.605469 C 16.214844 5.074219 18.125 4.816406 20.082031 4.816406 C 21.964844 4.816406 23.816406 5.0625 25.597656 5.546875 C 25.832031 5.617188 26.078125 5.449219 26.078125 5.191406 L 26.078125 2.988281 C 26.078125 1.445312 24.816406 0.199219 23.253906 0.199219 L 16.691406 0.199219 C 15.128906 0.199219 13.867188 1.445312 13.867188 2.988281 L 13.882812 2.988281 L 13.882812 5.246094 " fill-opacity="1" fill-rule="nonzero"/></g><g clip-path="url(#6300b294c7)"><path fill="#000000" d="M 3.339844 13.253906 C 3.976562 12.382812 4.703125 11.539062 5.484375 10.765625 C 6.28125 9.980469 7.136719 9.277344 8.03125 8.636719 C 8.222656 8.492188 8.234375 8.222656 8.078125 8.0625 L 6.960938 6.964844 C 5.859375 5.875 4.078125 5.875 2.980469 6.964844 L 1.644531 8.277344 C 0.546875 9.363281 0.546875 11.125 1.644531 12.195312 L 2.761719 13.296875 C 2.921875 13.46875 3.195312 13.441406 3.339844 13.253906 " fill-opacity="1" fill-rule="nonzero"/></g><g clip-path="url(#e618bddb0d)"><path fill="#000000" d="M 20.066406 7.078125 C 9.941406 7.078125 1.734375 15.179688 1.734375 25.179688 C 1.734375 35.175781 9.941406 43.277344 20.066406 43.277344 C 23.976562 43.277344 27.605469 42.070312 30.578125 40.007812 C 32.40625 38.746094 31.503906 35.914062 29.273438 35.914062 C 28.804688 35.914062 28.347656 36.058594 27.964844 36.324219 C 26 37.683594 23.664062 38.554688 21.136719 38.746094 L 21.136719 35.914062 L 19 35.914062 L 19 38.746094 C 16.007812 38.519531 13.277344 37.339844 11.117188 35.519531 L 13.125 33.542969 L 11.613281 32.050781 L 9.605469 34.03125 C 7.746094 31.890625 6.546875 29.175781 6.324219 26.199219 L 9.15625 26.199219 L 9.15625 24.089844 L 6.328125 24.089844 C 6.5625 21.132812 7.753906 18.441406 9.597656 16.316406 L 11.613281 18.304688 L 13.125 16.816406 L 11.109375 14.828125 C 13.265625 13.007812 15.996094 11.835938 19 11.609375 L 19 14.441406 L 21.136719 14.441406 L 21.136719 11.609375 C 24.140625 11.839844 26.875 13.023438 29.035156 14.851562 L 26.996094 16.863281 L 28.503906 18.355469 L 30.542969 16.34375 C 31.273438 17.183594 31.898438 18.113281 32.40625 19.113281 C 32.789062 19.875 33.574219 20.359375 34.4375 20.359375 L 34.441406 20.359375 C 36.136719 20.359375 37.238281 18.601562 36.480469 17.105469 C 33.476562 11.160156 27.253906 7.078125 20.066406 7.078125 " fill-opacity="1" fill-rule="nonzero"/></g><path fill="#000000" d="M 38.421875 8.398438 L 37.089844 7.085938 C 35.988281 5.996094 34.207031 5.996094 33.121094 7.085938 L 32.007812 8.183594 C 31.832031 8.34375 31.863281 8.613281 32.050781 8.757812 C 32.933594 9.386719 33.789062 10.101562 34.570312 10.875 C 35.367188 11.660156 36.078125 12.503906 36.726562 13.390625 C 36.875 13.574219 37.148438 13.589844 37.308594 13.433594 L 38.421875 12.332031 C 39.523438 11.246094 39.523438 9.484375 38.421875 8.398438 " fill-opacity="1" fill-rule="nonzero"/><path fill="#000000" d="M 29.917969 25.570312 C 29.917969 24.847656 29.925781 24.074219 29.910156 23.410156 L 33.167969 23.410156 C 33.207031 23.664062 33.230469 24.015625 33.242188 24.261719 C 33.695312 23.726562 34.527344 23.199219 35.769531 23.199219 C 37.230469 23.199219 37.863281 23.761719 38.191406 24.351562 C 38.625 23.855469 39.429688 23.199219 40.9375 23.199219 C 42.78125 23.199219 44.023438 24.234375 44.023438 26.507812 L 44.023438 31.308594 L 40.695312 31.308594 L 40.695312 26.6875 C 40.695312 26.089844 40.523438 25.445312 39.734375 25.445312 C 39.046875 25.445312 38.660156 25.875 38.660156 26.898438 L 38.660156 31.308594 L 35.308594 31.308594 L 35.308594 26.632812 C 35.308594 26.0625 35.140625 25.417969 34.34375 25.417969 C 33.605469 25.417969 33.265625 25.914062 33.265625 26.882812 L 33.265625 31.308594 L 29.917969 31.308594 L 29.917969 25.570312 " fill-opacity="1" fill-rule="nonzero"/><path fill="#000000" d="M 45.9375 23.410156 L 49.328125 23.410156 L 49.328125 31.308594 L 45.9375 31.308594 Z M 45.9375 20.179688 L 49.328125 20.179688 L 49.328125 22.320312 L 45.9375 22.320312 L 45.9375 20.179688 " fill-opacity="1" fill-rule="nonzero"/><path fill="#000000" d="M 51.199219 25.460938 C 51.199219 24.773438 51.199219 23.925781 51.183594 23.410156 L 54.515625 23.410156 C 54.550781 23.628906 54.574219 24.054688 54.589844 24.28125 C 54.957031 23.820312 55.695312 23.199219 57.199219 23.199219 C 59.21875 23.199219 60.339844 24.40625 60.339844 26.433594 L 60.339844 31.308594 L 56.925781 31.308594 L 56.925781 26.757812 C 56.925781 26.042969 56.65625 25.460938 55.839844 25.460938 C 55.011719 25.460938 54.601562 25.976562 54.601562 27.179688 L 54.601562 31.308594 L 51.199219 31.308594 L 51.199219 25.460938 " fill-opacity="1" fill-rule="nonzero"/><g clip-path="url(#a33cde5417)"><path fill="#000000" d="M 64.703125 28.875 C 64.859375 29.316406 65.277344 29.582031 66.035156 29.582031 C 66.789062 29.582031 67.027344 29.359375 67.027344 29.085938 C 67.027344 28.738281 66.695312 28.59375 65.429688 28.417969 C 62.203125 27.976562 61.785156 26.847656 61.785156 25.824219 C 61.785156 24.535156 62.8125 23.199219 65.757812 23.199219 C 68.855469 23.199219 69.898438 24.535156 70.03125 25.714844 L 66.984375 25.714844 C 66.898438 25.382812 66.636719 25.085938 65.820312 25.085938 C 65.109375 25.085938 64.980469 25.328125 64.980469 25.550781 C 64.980469 25.808594 65.265625 25.941406 66.484375 26.121094 C 69.753906 26.601562 70.289062 27.664062 70.289062 28.808594 C 70.289062 30.21875 69.269531 31.515625 65.984375 31.515625 C 63.46875 31.515625 61.804688 30.523438 61.554688 28.875 L 64.703125 28.875 " fill-opacity="1" fill-rule="nonzero"/></g><path fill="#000000" d="M 24.878906 21.75 L 18.800781 21.75 C 18.738281 22.136719 18.613281 23.039062 18.550781 23.398438 C 19.140625 23.070312 19.90625 22.839844 21.179688 22.839844 C 23.789062 22.839844 25.855469 24.269531 25.855469 26.9375 C 25.855469 29.824219 23.777344 31.515625 19.96875 31.515625 C 16.546875 31.515625 14.492188 29.898438 14.191406 27.609375 L 18.132812 27.609375 C 18.324219 28.300781 18.882812 28.792969 19.964844 28.792969 C 20.964844 28.792969 21.65625 28.253906 21.65625 27.148438 C 21.65625 26.148438 21.097656 25.464844 19.832031 25.464844 C 18.648438 25.464844 18.191406 25.96875 17.925781 26.507812 L 14.402344 26.160156 C 14.75 24.414062 15.328125 20.894531 15.554688 18.839844 L 25.347656 18.839844 L 24.878906 21.75 " fill-opacity="1" fill-rule="nonzero"/></svg>